name rise44.9368peak50.754fall52.0217.mot
datacolumns 19
datarows 30
range 22.96157900000000 23.00991500000000
endheader
time	ground_force1_vx	ground_force1_vy	ground_force1_vz	ground_force1_px	ground_force1_py	ground_force1_pz	ground_force2_vx	ground_force2_vy	ground_force2_vz	ground_force2_px	ground_force2_py	ground_force2_pz	ground_torque1_x	ground_torque1_y	ground_torque1_z	ground_torque2_x	ground_torque2_y	ground_torque2_z	
22.96157900000000	72.45614399999999	788.02619300000003	62.82368100000000	0.41931900000000	0.00000000000000	0.11654000000000	0.00000000000000	0.00000000000000	0.00000000000000	0.00000000000000	0.00000000000000	0.00000000000000	0.00000000000000	33.74453800000000	0.00000000000000	0.00000000000000	0.00000000000000	0.00000000000000	
22.96324900000000	71.65932800000000	788.47952199999997	62.83742700000000	0.41814400000000	0.00000000000000	0.11661700000000	0.00000000000000	0.00000000000000	0.00000000000000	0.00000000000000	0.00000000000000	0.00000000000000	0.00000000000000	33.74212500000000	0.00000000000000	0.00000000000000	0.00000000000000	0.00000000000000	
22.96492100000000	70.86114499999999	788.83083099999999	62.85395100000000	0.41695700000000	0.00000000000000	0.11669800000000	0.00000000000000	0.00000000000000	0.00000000000000	0.00000000000000	0.00000000000000	0.00000000000000	0.00000000000000	33.74321900000000	0.00000000000000	0.00000000000000	0.00000000000000	0.00000000000000	
22.96658500000000	70.06218300000000	789.08160799999996	62.87309000000000	0.41575900000000	0.00000000000000	0.11678300000000	0.00000000000000	0.00000000000000	0.00000000000000	0.00000000000000	0.00000000000000	0.00000000000000	0.00000000000000	33.74770600000000	0.00000000000000	0.00000000000000	0.00000000000000	0.00000000000000	
22.96825500000000	69.26297000000000	789.23338699999999	62.89460700000000	0.41455000000000	0.00000000000000	0.11687100000000	0.00000000000000	0.00000000000000	0.00000000000000	0.00000000000000	0.00000000000000	0.00000000000000	0.00000000000000	33.75541600000000	0.00000000000000	0.00000000000000	0.00000000000000	0.00000000000000	
22.96991400000000	68.46398000000001	789.28775199999995	62.91819200000000	0.41333100000000	0.00000000000000	0.11696200000000	0.00000000000000	0.00000000000000	0.00000000000000	0.00000000000000	0.00000000000000	0.00000000000000	0.00000000000000	33.76612500000000	0.00000000000000	0.00000000000000	0.00000000000000	0.00000000000000	
22.97158600000000	67.66563100000000	789.24634300000002	62.94347200000000	0.41210100000000	0.00000000000000	0.11705700000000	0.00000000000000	0.00000000000000	0.00000000000000	0.00000000000000	0.00000000000000	0.00000000000000	0.00000000000000	33.77955700000000	0.00000000000000	0.00000000000000	0.00000000000000	0.00000000000000	
22.97324600000000	66.86829299999999	789.11085900000000	62.97001500000000	0.41086100000000	0.00000000000000	0.11715400000000	0.00000000000000	0.00000000000000	0.00000000000000	0.00000000000000	0.00000000000000	0.00000000000000	0.00000000000000	33.79539400000000	0.00000000000000	0.00000000000000	0.00000000000000	0.00000000000000	
22.97491300000000	66.07229200000000	788.88306799999998	62.99733400000000	0.40961100000000	0.00000000000000	0.11725400000000	0.00000000000000	0.00000000000000	0.00000000000000	0.00000000000000	0.00000000000000	0.00000000000000	0.00000000000000	33.81327600000000	0.00000000000000	0.00000000000000	0.00000000000000	0.00000000000000	
22.97661000000000	65.27790700000000	788.56480299999998	63.02490000000000	0.40835100000000	0.00000000000000	0.11735700000000	0.00000000000000	0.00000000000000	0.00000000000000	0.00000000000000	0.00000000000000	0.00000000000000	0.00000000000000	33.83280700000000	0.00000000000000	0.00000000000000	0.00000000000000	0.00000000000000	
22.97824600000000	64.48538200000000	788.15797099999997	63.05214000000000	0.40708200000000	0.00000000000000	0.11746200000000	0.00000000000000	0.00000000000000	0.00000000000000	0.00000000000000	0.00000000000000	0.00000000000000	0.00000000000000	33.85356200000000	0.00000000000000	0.00000000000000	0.00000000000000	0.00000000000000	
22.97991600000000	63.69492400000000	787.66455399999995	63.07845000000000	0.40580400000000	0.00000000000000	0.11757000000000	0.00000000000000	0.00000000000000	0.00000000000000	0.00000000000000	0.00000000000000	0.00000000000000	0.00000000000000	33.87508800000000	0.00000000000000	0.00000000000000	0.00000000000000	0.00000000000000	
22.98158300000000	62.90670900000000	787.08660999999995	63.10319900000000	0.40451700000000	0.00000000000000	0.11767900000000	0.00000000000000	0.00000000000000	0.00000000000000	0.00000000000000	0.00000000000000	0.00000000000000	0.00000000000000	33.89691300000000	0.00000000000000	0.00000000000000	0.00000000000000	0.00000000000000	
22.98324800000000	62.12088400000000	786.42627400000003	63.12573400000000	0.40322100000000	0.00000000000000	0.11779100000000	0.00000000000000	0.00000000000000	0.00000000000000	0.00000000000000	0.00000000000000	0.00000000000000	0.00000000000000	33.91854900000000	0.00000000000000	0.00000000000000	0.00000000000000	0.00000000000000	
22.98491900000000	61.33757200000000	785.68575999999996	63.14538900000000	0.40191700000000	0.00000000000000	0.11790400000000	0.00000000000000	0.00000000000000	0.00000000000000	0.00000000000000	0.00000000000000	0.00000000000000	0.00000000000000	33.93949300000000	0.00000000000000	0.00000000000000	0.00000000000000	0.00000000000000	
22.98658200000000	60.55687700000000	784.86736099999996	63.16149100000000	0.40060400000000	0.00000000000000	0.11801900000000	0.00000000000000	0.00000000000000	0.00000000000000	0.00000000000000	0.00000000000000	0.00000000000000	0.00000000000000	33.95923900000000	0.00000000000000	0.00000000000000	0.00000000000000	0.00000000000000	
22.98825500000000	59.77888400000000	783.97344699999996	63.17336400000000	0.39928400000000	0.00000000000000	0.11813400000000	0.00000000000000	0.00000000000000	0.00000000000000	0.00000000000000	0.00000000000000	0.00000000000000	0.00000000000000	33.97727600000000	0.00000000000000	0.00000000000000	0.00000000000000	0.00000000000000	
22.98991500000000	59.00366400000000	783.00646400000005	63.18033700000000	0.39795500000000	0.00000000000000	0.11825200000000	0.00000000000000	0.00000000000000	0.00000000000000	0.00000000000000	0.00000000000000	0.00000000000000	0.00000000000000	33.99309600000000	0.00000000000000	0.00000000000000	0.00000000000000	0.00000000000000	
22.99158100000000	58.23127900000000	781.96893200000000	63.18175000000000	0.39661900000000	0.00000000000000	0.11837000000000	0.00000000000000	0.00000000000000	0.00000000000000	0.00000000000000	0.00000000000000	0.00000000000000	0.00000000000000	34.00619700000000	0.00000000000000	0.00000000000000	0.00000000000000	0.00000000000000	
22.99324900000000	57.46178100000000	780.86344399999996	63.17695700000000	0.39527600000000	0.00000000000000	0.11848800000000	0.00000000000000	0.00000000000000	0.00000000000000	0.00000000000000	0.00000000000000	0.00000000000000	0.00000000000000	34.01608500000000	0.00000000000000	0.00000000000000	0.00000000000000	0.00000000000000	
22.99491700000000	56.69522100000000	779.69266300000004	63.16533500000000	0.39392600000000	0.00000000000000	0.11860800000000	0.00000000000000	0.00000000000000	0.00000000000000	0.00000000000000	0.00000000000000	0.00000000000000	0.00000000000000	34.02228300000000	0.00000000000000	0.00000000000000	0.00000000000000	0.00000000000000	
22.99658500000000	55.93164600000000	778.45931599999994	63.14628600000000	0.39256900000000	0.00000000000000	0.11872800000000	0.00000000000000	0.00000000000000	0.00000000000000	0.00000000000000	0.00000000000000	0.00000000000000	0.00000000000000	34.02432800000000	0.00000000000000	0.00000000000000	0.00000000000000	0.00000000000000	
22.99825400000000	55.17110300000000	777.16619300000002	63.11924100000000	0.39120500000000	0.00000000000000	0.11884800000000	0.00000000000000	0.00000000000000	0.00000000000000	0.00000000000000	0.00000000000000	0.00000000000000	0.00000000000000	34.02177800000000	0.00000000000000	0.00000000000000	0.00000000000000	0.00000000000000	
22.99991300000000	54.41364400000000	775.81614000000002	63.08366900000000	0.38983600000000	0.00000000000000	0.11896800000000	0.00000000000000	0.00000000000000	0.00000000000000	0.00000000000000	0.00000000000000	0.00000000000000	0.00000000000000	34.01421400000000	0.00000000000000	0.00000000000000	0.00000000000000	0.00000000000000	
23.00158300000000	53.65932600000000	774.41205600000001	63.03907400000000	0.38846100000000	0.00000000000000	0.11908700000000	0.00000000000000	0.00000000000000	0.00000000000000	0.00000000000000	0.00000000000000	0.00000000000000	0.00000000000000	34.00124500000000	0.00000000000000	0.00000000000000	0.00000000000000	0.00000000000000	
23.00325100000000	52.90821200000000	772.95689000000004	62.98500600000000	0.38708000000000	0.00000000000000	0.11920700000000	0.00000000000000	0.00000000000000	0.00000000000000	0.00000000000000	0.00000000000000	0.00000000000000	0.00000000000000	33.98250600000000	0.00000000000000	0.00000000000000	0.00000000000000	0.00000000000000	
23.00491900000000	52.16037500000000	771.45362899999998	62.92105700000000	0.38569400000000	0.00000000000000	0.11932600000000	0.00000000000000	0.00000000000000	0.00000000000000	0.00000000000000	0.00000000000000	0.00000000000000	0.00000000000000	33.95766400000000	0.00000000000000	0.00000000000000	0.00000000000000	0.00000000000000	
23.00658100000000	51.41589900000000	769.90529900000001	62.84686900000000	0.38430300000000	0.00000000000000	0.11944500000000	0.00000000000000	0.00000000000000	0.00000000000000	0.00000000000000	0.00000000000000	0.00000000000000	0.00000000000000	33.92641600000000	0.00000000000000	0.00000000000000	0.00000000000000	0.00000000000000	
23.00825300000000	50.67487600000000	768.31495700000005	62.76213300000000	0.38290800000000	0.00000000000000	0.11956300000000	0.00000000000000	0.00000000000000	0.00000000000000	0.00000000000000	0.00000000000000	0.00000000000000	0.00000000000000	33.88849800000000	0.00000000000000	0.00000000000000	0.00000000000000	0.00000000000000	
23.00991500000000	49.93741400000000	766.68568300000004	62.66659300000000	0.38150900000000	0.00000000000000	0.11968000000000	0.00000000000000	0.00000000000000	0.00000000000000	0.00000000000000	0.00000000000000	0.00000000000000	0.00000000000000	33.84367600000000	0.00000000000000	0.00000000000000	0.00000000000000	0.00000000000000	
